<?xml version="1.0" encoding="utf-8"?>
<!-- Generator: Adobe Illustrator 19.1.0, SVG Export Plug-In . SVG Version: 6.00 Build 0)  -->
<svg version="1.1" id="Capa_1" xmlns="http://www.w3.org/2000/svg" xmlns:xlink="http://www.w3.org/1999/xlink" x="0px" y="0px"
	 viewBox="0 0 400 90" style="enable-background:new 0 0 400 90;" xml:space="preserve">
<style type="text/css">
	.st0{fill:#DFB733;}
	.st1{fill:#5576AC;}
	.st2{fill:#C2C2C8;}
	.st3{fill:#AAAAAA;}
</style>
<g>
	<g>
		<path class="st0" d="M44.8,12.6c0,5.9-4.7,10.6-10.6,10.6s-10.6-4.7-10.6-10.6S28.4,2,34.3,2C40.1,2,44.8,6.7,44.8,12.6"/>
		<path class="st1" d="M44.8,60.3c0-0.5-0.4-1-1-1H24.8c-0.5,0-1,0.4-1,1v3.1c0,0.5,0.4,1,1,1H44c0.5,0,1-0.4,1-1L44.8,60.3
			L44.8,60.3z"/>
		<path class="st1" d="M44.8,49.4c0-0.5-0.4-1-1-1H24.8c-0.5,0-1,0.4-1,1v3.1c0,0.5,0.4,1,1,1H44c0.5,0,1-0.4,1-1L44.8,49.4
			L44.8,49.4z"/>
		<path class="st1" d="M65.3,39.2c0-0.5-0.4-1-1-1H4.3c-0.5,0-1,0.4-1,1v3.1c0,0.5,0.4,1,1,1h60.1c0.5,0,1-0.4,1-1V39.2z"/>
		<path class="st1" d="M65.3,28.3c0-0.5-0.4-1-1-1H4.3c-0.5,0-1,0.4-1,1v3.1c0,0.5,0.4,1,1,1h60.1c0.5,0,1-0.4,1-1V28.3z"/>
		<g>
			<path class="st1" d="M97.5,45.9L97.5,45.9c-3.5,0.4-7,1.3-10.5,2.5c-3.4,1.1-5.8,2.2-5.8,6.3c0,4.4,3.3,6.2,7.2,6.2
				c7.7,0,9-5.4,9-12.2v-2.8H97.5z M98.3,64.1l-0.1-5.8c-2.6,4.9-6.1,6.6-11.4,6.6c-6,0-11.2-3.3-11.2-9.9c0-4.3,1.7-7.3,5.8-8.8
				c5-1.8,16.1-3.5,16.1-3.5c0.2-6.8-1.1-11.2-8.3-11.2c-3.9,0-6.9,1.5-8.3,5.4h-2l-1-5c3.1-3.8,8-4.7,12.5-4.7c4.1,0,7,0.7,9.1,2.5
				c2.3,2.1,3.5,5.3,3.5,10.2c0,4.1-0.2,8.1-0.2,12.2c0,6-0.9,9.6,6.4,9.9v2C109.1,64.1,98.3,64.1,98.3,64.1z"/>
			<path class="st1" d="M123.9,64.9c-3.5,0-6.8-0.6-9.8-2.6l0.9-6.1c2.9,2.7,6.3,5.2,10.5,5.2c3.8,0,6.9-2.2,6.9-6.3
				c0-4.6-3.7-6-7.9-7.3c-4.9-1.5-10.6-3-10.6-10c0-7.9,6.8-10.6,13.7-10.6c3,0,6.1,0.4,9,1.6l-1.1,8.5h-2c-0.4-4.1-2.7-6.6-6.8-6.6
				c-3.4,0-6.9,1.9-6.9,5.8c0,4.4,3.8,5.8,8,6.9c5,1.5,10.6,3.2,10.6,10.2C138.3,62,130.9,64.9,123.9,64.9"/>
			<path class="st1" d="M156.1,64.9c-3.5,0-6.8-0.6-9.8-2.6l0.9-6.1c2.9,2.7,6.3,5.2,10.5,5.2c3.8,0,6.9-2.2,6.9-6.3
				c0-4.6-3.7-6-7.9-7.3c-4.9-1.5-10.6-3-10.6-10c0-7.9,6.8-10.6,13.7-10.6c3,0,6.1,0.4,9,1.6l-1.1,8.5h-2c-0.4-4.1-2.7-6.6-6.8-6.6
				c-3.4,0-6.9,1.9-6.9,5.8c0,4.4,3.8,5.8,8,6.9c5,1.5,10.6,3.2,10.6,10.2C170.4,62,163.2,64.9,156.1,64.9"/>
			<path class="st1" d="M193.4,30.5L193.4,30.5c-7.2,0-9.4,4.8-10.2,11.1l19-0.9C202.4,34.6,200.1,30.5,193.4,30.5 M207.9,44.8
				l-24.8-0.1c0,9.1,3.6,16.2,13.9,16.2c3.6,0,7.2-1.2,10.2-3l-0.3,3.8c-3.5,2.5-7,3.2-11.3,3.2c-11.6,0-18.3-7.8-18.3-19.2
				c0-10,5.7-18.8,16.6-18.6c10.4,0.1,14.2,5.2,14.2,14.4C208.1,42.6,208,43.7,207.9,44.8z"/>
		</g>
		<path class="st2" d="M269.9,45.9L269.9,45.9c-3.5,0.4-7,1.3-10.5,2.5c-3.4,1.1-5.8,2.2-5.8,6.3c0,4.4,3.3,6.2,7.2,6.2
			c7.7,0,9-5.4,9-12.2v-2.8H269.9z M270.6,64.1l-0.1-5.8c-2.6,4.9-6.1,6.6-11.4,6.6c-6,0-11.2-3.3-11.2-9.9c0-4.3,1.7-7.3,5.8-8.8
			c5-1.8,16.1-3.5,16.1-3.5c0.2-6.8-1.1-11.2-8.3-11.2c-3.9,0-6.9,1.5-8.3,5.4h-2l-1-5c3-3.7,8-4.6,12.5-4.6c4.1,0,7,0.7,9.1,2.5
			c2.3,2.1,3.5,5.3,3.5,10.2c0,4.1-0.2,8.1-0.2,12.2c0,6-0.9,9.6,6.5,9.9v2h-10.9V64.1z"/>
		<path class="st2" d="M227.2,64.9c-3.5,0-6.8-0.6-9.8-2.6l0.9-6.1c2.9,2.7,6.3,5.2,10.5,5.2c3.8,0,6.9-2.2,6.9-6.3
			c0-4.6-3.7-6-7.9-7.3c-4.9-1.5-10.6-3-10.6-10c0-7.9,6.8-10.6,13.7-10.6c3,0,6.1,0.4,9,1.6l-1.1,8.5h-2c-0.4-4.1-2.7-6.6-6.8-6.6
			c-3.4,0-6.9,1.9-6.9,5.8c0,4.4,3.8,5.8,8,6.9c5,1.5,10.6,3.2,10.6,10.2C241.6,62,234.3,64.9,227.2,64.9"/>
		<path class="st2" d="M280.7,11.2c0,0,8.4-1.3,12.4-1l0.1,53.8h-6.1c0,0,1.3-32,1-46c0,0,0.3-5.4-7.2-4.9L280.7,11.2z"/>
		<path class="st2" d="M377.4,60.5c-1.4-1.6-1.7-3-1.9-6.1l-0.1-44.2c-3.9-0.4-12.4,1-12.4,1l0.1,1.8c7.5-0.5,7.2,5,7.2,5
			c0.1,3.2,0.1,6.8,0.1,10.9c-1.5-0.6-4.4-1.6-8-1.5c-5.4,0.1-19.1,4.2-18.6,20.3c0.5,16.2,13.9,17,16,17c1.8,0,7.7-0.6,10.8-4.6
			c0.1,2.5,0.3,3.8,0.3,3.8l0,0V64h11.2v-2.1C382.2,62,378.9,62.2,377.4,60.5z M361,60.1c-7.2-0.1-11.4-6.3-11.2-13.9
			c0.2-7.6,3.9-15.3,12.3-15.4c7.4-0.1,8.3,4.1,8.5,6.4c0,6.3,0.1,12.8,0.1,18.7V56C369.5,57.3,366.6,60.2,361,60.1z"/>
		<path class="st2" d="M335.9,60.5c-1-1.1-1.4-2-1.6-3.5l-0.1-29.2c-3.9-0.4-12.4,1-12.4,1l0.1,1.8c7.5-0.5,7.2,5,7.2,5
			c0.1,5.3,0.1,13.1-0.1,20.9c-4.1,4.8-9.5,4.1-9.5,4.1c-8.4,0.1-7.7-10.1-7.7-10.1V27.8c-3.9-0.4-12.4,1-12.4,1l0.1,1.7
			c7.5-0.5,7.2,5,7.2,5c0.1,4.9,0,12-0.1,19.1c-0.1,6.6,4.1,10.4,11.1,10.4c6.2,0.1,10.4-4.4,11.4-5.7c-0.1,3.4-0.1,4.8-0.1,4.8h0.4
			h4.9h6.4V62C340.7,62,337.3,62.2,335.9,60.5z"/>
	</g>
	<g>
		<path class="st3" d="M23.5,86.6c-0.1-0.2-0.1-0.4-0.1-0.6c0-0.1-0.1-0.4-0.1-0.5c-0.3,0.4-0.6,0.7-1.1,1c-0.4,0.2-1,0.4-1.4,0.4
			c-0.9,0-1.5-0.2-1.9-0.6c-0.4-0.4-0.7-1-0.7-1.8c0-0.9,0.3-1.4,1-1.8c0.6-0.4,1.5-0.6,2.6-0.6h1.6v-0.7c0-0.4-0.1-0.9-0.4-1.1
			c-0.3-0.3-0.7-0.4-1.3-0.4c-0.4,0-0.9,0.1-1.2,0.4c-0.3,0.2-0.4,0.5-0.4,0.9h-1.4v-0.1c0-0.6,0.2-1.1,0.9-1.6
			c0.6-0.4,1.3-0.7,2.2-0.7c1,0,1.6,0.2,2.1,0.7c0.5,0.4,0.9,1.2,0.9,2v3.8c0,0.3,0,0.5,0.1,0.9c0,0.2,0.1,0.5,0.1,0.7h-1.5v-0.1
			H23.5z M21.1,85.6c0.5,0,1-0.1,1.5-0.4c0.4-0.3,0.7-0.6,0.9-1v-1.3h-1.6c-0.6,0-1.1,0.1-1.4,0.4c-0.4,0.3-0.5,0.6-0.5,1.1
			c0,0.4,0.1,0.6,0.3,0.9C20.4,85.5,20.6,85.6,21.1,85.6z"/>
		<path class="st3" d="M26.7,82.8c0-1.3,0.3-2.3,0.9-3.1c0.5-0.7,1.3-1.2,2.3-1.2c0.4,0,0.9,0.1,1.3,0.2c0.4,0.1,0.7,0.4,1,0.7v-4.4
			h1.5v11.6h-1.2l-0.1-1c-0.2,0.4-0.6,0.7-1,0.9c-0.4,0.2-0.9,0.3-1.3,0.3c-1,0-1.8-0.4-2.3-1.1c-0.5-0.6-0.9-1.6-0.9-2.8v-0.3H26.7
			z M28.2,82.9c0,0.9,0.1,1.5,0.4,1.9c0.3,0.4,0.9,0.7,1.5,0.7c0.4,0,0.7-0.1,1.1-0.3s0.5-0.4,0.7-0.9v-3.7
			c-0.1-0.3-0.4-0.6-0.7-0.7c-0.3-0.2-0.7-0.3-1.1-0.3c-0.7,0-1.3,0.3-1.5,0.9c-0.3,0.5-0.4,1.3-0.4,2.2V82.9z"/>
		<path class="st3" d="M37,78.6l0.1,1.1c0.2-0.4,0.6-0.7,1-0.9c0.4-0.2,0.9-0.3,1.4-0.3s1,0.1,1.4,0.4c0.4,0.3,0.7,0.6,0.9,1.1
			c0.2-0.4,0.6-0.9,1-1.1c0.3-0.2,1-0.4,1.5-0.4c0.9,0,1.5,0.3,1.9,0.9c0.4,0.5,0.7,1.4,0.7,2.6v4.8h-1.5v-4.8
			c0-0.7-0.1-1.4-0.4-1.7c-0.3-0.3-0.7-0.4-1.3-0.4c-0.4,0-1,0.1-1.3,0.5c-0.3,0.3-0.4,0.7-0.5,1.3v0.1v5.1h-1.5V82
			c0-0.7-0.1-1.3-0.4-1.6c-0.3-0.4-0.7-0.5-1.3-0.5c-0.4,0-0.9,0.1-1.1,0.3c-0.3,0.1-0.5,0.4-0.7,0.7v6h-1.5v-8h1.4v-0.3H37z"/>
		<path class="st3" d="M50.7,76.6h-1.5v-1.5h1.5V76.6z M50.7,86.6h-1.5v-8h1.5V86.6z"/>
		<path class="st3" d="M54.3,78.6l0.1,1.2c0.2-0.4,0.6-0.7,1-1c0.3-0.2,0.9-0.4,1.4-0.4c0.9,0,1.5,0.2,2,0.7
			c0.4,0.5,0.7,1.3,0.7,2.3v5.1h-1.5v-5c0-0.7-0.1-1.3-0.4-1.5c-0.2-0.4-0.6-0.5-1.3-0.5c-0.4,0-0.7,0.1-1.1,0.3
			c-0.3,0.2-0.6,0.4-0.7,0.9v5.9H53v-8.1L54.3,78.6L54.3,78.6z"/>
		<path class="st3" d="M63.3,76.6h-1.5v-1.5h1.5V76.6z M63.3,86.6h-1.5v-8h1.5V86.6z"/>
		<path class="st3" d="M70.3,84.6c0-0.3-0.1-0.6-0.4-0.7c-0.2-0.2-0.7-0.4-1.4-0.5c-1-0.2-1.7-0.4-2.2-0.9c-0.4-0.4-0.7-0.9-0.7-1.5
			c0-0.6,0.3-1.3,0.9-1.7c0.5-0.4,1.3-0.7,2.1-0.7c1,0,1.7,0.2,2.2,0.7c0.5,0.4,0.9,1.1,0.7,1.8v0.1h-1.3c0-0.4-0.1-0.7-0.4-1
			c-0.3-0.3-0.7-0.4-1.2-0.4c-0.5,0-1,0.1-1.2,0.3C67.1,80.3,67,80.7,67,81c0,0.3,0.1,0.5,0.3,0.7c0.2,0.1,0.7,0.3,1.4,0.4
			c1,0.2,1.8,0.5,2.2,0.9c0.4,0.4,0.7,0.9,0.7,1.5c0,0.7-0.3,1.3-0.9,1.7c-0.5,0.4-1.3,0.7-2.2,0.7s-1.8-0.2-2.3-0.7
			c-0.6-0.5-0.9-1.2-0.9-1.8v-0.1h1.4c0,0.5,0.2,1,0.6,1.2c0.4,0.2,0.7,0.4,1.3,0.4c0.5,0,1-0.1,1.3-0.3
			C70.3,85.4,70.3,84.9,70.3,84.6z"/>
		<path class="st3" d="M75.6,76.7v1.9h1.5v1.1h-1.5v4.9c0,0.4,0.1,0.6,0.2,0.7s0.4,0.2,0.6,0.2c0.1,0,0.1,0,0.3,0
			c0.1,0,0.1-0.1,0.3-0.1l0.2,1c-0.1,0.1-0.2,0.1-0.4,0.2c-0.2,0.1-0.4,0.1-0.6,0.1c-0.6,0-1.1-0.1-1.4-0.5c-0.4-0.4-0.5-1-0.5-1.7
			v-4.9H73v-1.1h1.3v-1.9L75.6,76.7L75.6,76.7z"/>
		<path class="st3" d="M82.9,79.9l-0.7-0.1c-0.4,0-0.7,0.1-1,0.3c-0.2,0.1-0.4,0.4-0.6,0.7v5.8h-1.5v-8h1.3l0.1,1.2
			c0.2-0.4,0.5-0.7,0.9-1c0.3-0.2,0.7-0.4,1.2-0.4c0.1,0,0.2,0,0.3,0s0.1,0,0.2,0.1L82.9,79.9z"/>
		<path class="st3" d="M89.3,86.6c-0.1-0.2-0.1-0.4-0.1-0.6c0-0.1-0.1-0.4-0.1-0.5c-0.3,0.4-0.6,0.7-1.1,1c-0.4,0.2-1,0.4-1.4,0.4
			c-0.9,0-1.5-0.2-1.9-0.6c-0.4-0.4-0.7-1-0.7-1.8c0-0.9,0.3-1.4,1-1.8c0.6-0.4,1.5-0.6,2.6-0.6h1.6v-0.7c0-0.4-0.1-0.9-0.4-1.1
			c-0.3-0.3-0.7-0.4-1.3-0.4c-0.4,0-0.9,0.1-1.2,0.4c-0.3,0.2-0.4,0.5-0.4,0.9h-1.4v-0.1c0-0.6,0.2-1.1,0.9-1.6
			c0.6-0.4,1.3-0.7,2.2-0.7c1,0,1.6,0.2,2.1,0.7c0.5,0.5,0.9,1.2,0.9,2v3.8c0,0.3,0,0.5,0.1,0.9c0,0.2,0.1,0.5,0.1,0.7h-1.5v-0.1
			H89.3z M86.8,85.6c0.5,0,1-0.1,1.5-0.4c0.5-0.3,0.7-0.6,0.9-1v-1.3h-1.6c-0.6,0-1.1,0.1-1.4,0.4c-0.4,0.3-0.5,0.6-0.5,1.1
			c0,0.4,0.1,0.6,0.3,0.9C86.1,85.5,86.4,85.6,86.8,85.6z"/>
		<path class="st3" d="M96,85.7c0.4,0,1-0.1,1.3-0.4s0.5-0.7,0.5-1.1h1.3v0.1c0,0.7-0.3,1.3-1,1.8c-0.6,0.5-1.4,0.7-2.2,0.7
			c-1.2,0-2.1-0.4-2.7-1.2c-0.5-0.7-1-1.7-1-2.9v-0.3c0-1.2,0.3-2.1,1-2.9c0.6-0.7,1.5-1.2,2.7-1.2c1,0,1.7,0.3,2.3,0.9
			c0.6,0.5,0.9,1.3,0.9,2v0.1H98c0-0.4-0.1-1-0.5-1.3c-0.3-0.3-0.7-0.5-1.3-0.5c-0.7,0-1.3,0.3-1.6,0.9c-0.3,0.5-0.4,1.3-0.4,2v0.3
			c0,0.9,0.1,1.5,0.4,2.1C94.7,85.5,95.3,85.7,96,85.7z"/>
		<path class="st3" d="M102.5,76.6H101v-1.5h1.5V76.6z M102.5,86.6H101v-8h1.5V86.6z"/>
		<path class="st3" d="M104.5,82.6c0-1.2,0.3-2.1,1-3c0.6-0.9,1.5-1.2,2.7-1.2s2,0.4,2.7,1.2c0.6,0.7,1,1.8,1,3v0.1
			c0,1.3-0.3,2.1-1,3c-0.6,0.7-1.5,1.2-2.7,1.2s-2-0.4-2.7-1.2c-0.6-0.7-1-1.8-1-3V82.6L104.5,82.6z M106,82.7
			c0,0.9,0.1,1.5,0.5,2.1c0.4,0.5,1,0.9,1.6,0.9c0.7,0,1.3-0.3,1.6-0.9c0.4-0.5,0.5-1.3,0.5-2.1v-0.1c0-0.9-0.1-1.5-0.5-2.1
			c-0.4-0.6-1-0.9-1.6-0.9c-0.7,0-1.3,0.3-1.6,0.9c-0.3,0.5-0.5,1.3-0.5,2.1V82.7z M108.9,75.5h1.7v0.1l-2,1.9h-1.1L108.9,75.5z"/>
		<path class="st3" d="M114.8,78.6l0.1,1.2c0.2-0.4,0.6-0.7,1-1s0.9-0.4,1.4-0.4c0.9,0,1.5,0.2,2,0.7c0.5,0.5,0.7,1.3,0.7,2.3v5.1
			h-1.5v-5c0-0.7-0.1-1.3-0.4-1.5c-0.3-0.3-0.7-0.4-1.3-0.4c-0.4,0-0.7,0.1-1.1,0.3c-0.3,0.2-0.6,0.4-0.7,0.9v5.9h-1.5v-8.2
			L114.8,78.6L114.8,78.6z"/>
		<path class="st3" d="M125.8,82.8c0-1.3,0.3-2.3,0.9-3.1c0.5-0.7,1.3-1.2,2.3-1.2c0.4,0,0.9,0.1,1.3,0.2c0.4,0.1,0.7,0.4,1,0.7
			v-4.4h1.5v11.6h-1.2l-0.1-1c-0.2,0.4-0.6,0.7-1,0.9c-0.4,0.2-0.9,0.3-1.3,0.3c-1,0-1.8-0.4-2.3-1.1c-0.5-0.6-0.9-1.6-0.9-2.8v-0.3
			H125.8z M127.3,82.9c0,0.9,0.1,1.5,0.4,1.9c0.3,0.4,0.9,0.7,1.5,0.7c0.4,0,0.7-0.1,1.1-0.3c0.3-0.2,0.5-0.4,0.7-0.9v-3.7
			c-0.1-0.3-0.4-0.6-0.7-0.7c-0.2-0.1-0.7-0.3-1.1-0.3c-0.7,0-1.3,0.3-1.5,0.9c-0.2,0.5-0.4,1.3-0.4,2.2V82.9z"/>
		<path class="st3" d="M138.2,86.9c-1.1,0-2-0.4-2.7-1.1c-0.7-0.7-1-1.7-1-3v-0.3c0-1.2,0.3-2.1,1-2.9c0.7-0.7,1.5-1.2,2.3-1.2
			c1.1,0,1.9,0.3,2.5,1c0.5,0.6,0.9,1.5,0.9,2.7v1H136l0,0c0,0.7,0.2,1.4,0.6,1.9c0.4,0.4,1,0.7,1.5,0.7c0.4,0,1-0.1,1.3-0.2
			c0.4-0.1,0.7-0.3,1-0.6l0.5,1c-0.3,0.3-0.7,0.5-1.2,0.7C139.5,86.7,139,86.9,138.2,86.9z M138,79.6c-0.4,0-1,0.2-1.3,0.6
			c-0.3,0.4-0.5,1-0.6,1.5l0,0h3.7v-0.1c0-0.5-0.1-1.1-0.4-1.5C139.1,79.9,138.6,79.6,138,79.6z"/>
		<path class="st3" d="M148.5,86.6H147V75.1h1.5V86.6z"/>
		<path class="st3" d="M150.5,82.6c0-1.2,0.3-2.1,1-3s1.5-1.2,2.7-1.2c1.1,0,2,0.4,2.7,1.2c0.6,0.7,1,1.8,1,3v0.1c0,1.3-0.3,2.1-1,3
			c-0.6,0.9-1.5,1.2-2.7,1.2c-1.1,0-2-0.4-2.7-1.2c-0.6-0.7-1-1.8-1-3V82.6z M151.9,82.7c0,0.9,0.1,1.5,0.5,2.1
			c0.4,0.5,1,0.9,1.6,0.9c0.7,0,1.3-0.3,1.6-0.9c0.4-0.5,0.5-1.3,0.5-2.1v-0.1c0-0.9-0.1-1.5-0.5-2.1c-0.4-0.6-1-0.9-1.6-0.9
			c-0.7,0-1.3,0.3-1.6,0.9c-0.3,0.5-0.5,1.3-0.5,2.1V82.7z"/>
		<path class="st3" d="M164.1,84.6c0-0.3-0.1-0.6-0.4-0.7s-0.7-0.4-1.4-0.5c-1-0.2-1.7-0.4-2.2-0.9c-0.4-0.4-0.7-0.9-0.7-1.5
			c0-0.6,0.3-1.3,0.9-1.7c0.5-0.4,1.3-0.7,2.1-0.7c1,0,1.7,0.2,2.2,0.7c0.5,0.5,0.9,1.1,0.7,1.8v0.1h-1.4c0-0.4-0.1-0.7-0.4-1
			c-0.3-0.3-0.7-0.4-1.2-0.4c-0.5,0-1,0.1-1.2,0.3c-0.2,0.2-0.4,0.5-0.4,0.9s0.1,0.5,0.3,0.7c0.2,0.1,0.7,0.3,1.4,0.4
			c1,0.2,1.8,0.5,2.2,0.9c0.4,0.4,0.7,0.9,0.7,1.5c0,0.7-0.3,1.3-0.9,1.7c-0.5,0.4-1.3,0.7-2.2,0.7c-1,0-1.8-0.2-2.3-0.7
			c-0.6-0.5-0.9-1.2-0.9-1.8v-0.1h1.4c0,0.5,0.2,1,0.5,1.2c0.4,0.2,0.7,0.4,1.3,0.4s1-0.1,1.3-0.3C164,85.1,164.1,84.9,164.1,84.6z"
			/>
		<path class="st3" d="M176.1,84.6c0-0.3-0.1-0.6-0.4-0.7c-0.2-0.2-0.7-0.4-1.4-0.5c-1-0.2-1.7-0.4-2.2-0.9
			c-0.4-0.4-0.7-0.9-0.7-1.5c0-0.6,0.3-1.3,0.9-1.7c0.5-0.4,1.3-0.7,2.1-0.7c1,0,1.7,0.2,2.2,0.7c0.5,0.5,0.9,1.1,0.7,1.8v0.1h-1.4
			c0-0.4-0.1-0.7-0.4-1c-0.3-0.3-0.7-0.4-1.2-0.4c-0.5,0-1,0.1-1.2,0.3c-0.2,0.2-0.4,0.5-0.4,0.9s0.1,0.5,0.3,0.7
			c0.2,0.1,0.7,0.3,1.4,0.4c1,0.2,1.8,0.5,2.2,0.9c0.4,0.4,0.7,0.9,0.7,1.5c0,0.7-0.3,1.3-0.9,1.7c-0.5,0.4-1.3,0.7-2.2,0.7
			s-1.8-0.2-2.3-0.7c-0.6-0.5-0.9-1.2-0.9-1.8v-0.1h1.4c0,0.5,0.2,1,0.5,1.2c0.4,0.2,0.7,0.4,1.3,0.4c0.5,0,1-0.1,1.3-0.3
			C176,85.1,176.1,84.9,176.1,84.6z"/>
		<path class="st3" d="M182.8,86.9c-1.1,0-2-0.4-2.7-1.1c-0.7-0.7-1-1.7-1-3v-0.3c0-1.2,0.3-2.1,1-2.9c0.7-0.7,1.5-1.2,2.3-1.2
			c1.1,0,1.9,0.3,2.5,1c0.5,0.6,0.9,1.5,0.9,2.7v1h-5.2l0,0c0,0.7,0.2,1.4,0.6,1.9c0.4,0.4,1,0.7,1.5,0.7c0.4,0,1-0.1,1.3-0.2
			c0.4-0.1,0.7-0.3,1-0.6l0.5,1c-0.3,0.3-0.7,0.5-1.2,0.7C184.1,86.7,183.5,86.9,182.8,86.9z M182.6,79.6c-0.4,0-1,0.2-1.3,0.6
			c-0.3,0.4-0.5,1-0.6,1.5l0,0h3.7v-0.1c0-0.5-0.1-1.1-0.4-1.5C183.6,79.9,183.1,79.6,182.6,79.6z"/>
		<path class="st3" d="M191.4,79.9l-0.7-0.1c-0.4,0-0.7,0.1-1,0.3c-0.2,0.1-0.4,0.4-0.6,0.7v5.8h-1.5v-8h1.3l0.1,1.2
			c0.2-0.4,0.5-0.7,0.9-1c0.3-0.2,0.7-0.4,1.2-0.4c0.1,0,0.2,0,0.3,0s0.1,0,0.2,0.1L191.4,79.9z"/>
		<path class="st3" d="M195.6,84.4l0.1,0.5h0.1l0.1-0.5l1.8-5.7h1.5l-3,8h-1.1l-3-8h1.5L195.6,84.4z"/>
		<path class="st3" d="M202.4,76.6h-1.5v-1.5h1.5V76.6z M202.4,86.6h-1.5v-8h1.5V86.6z"/>
		<path class="st3" d="M207.9,85.7c0.4,0,1-0.1,1.3-0.4c0.3-0.3,0.5-0.7,0.5-1.1h1.3v0.1c0,0.7-0.3,1.3-1,1.8
			c-0.6,0.5-1.4,0.7-2.2,0.7c-1.2,0-2.1-0.4-2.7-1.2c-0.5-0.7-1-1.7-1-2.9v-0.3c0-1.2,0.3-2.1,1-2.9c0.6-0.7,1.5-1.2,2.7-1.2
			c1,0,1.7,0.3,2.3,0.9c0.6,0.5,0.9,1.3,0.9,2v0.1h-1.3c0-0.4-0.1-1-0.5-1.3c-0.3-0.3-0.7-0.5-1.3-0.5c-0.7,0-1.3,0.3-1.6,0.9
			c-0.3,0.5-0.4,1.3-0.4,2v0.3c0,0.9,0.1,1.5,0.4,2.1C206.5,85.5,207.2,85.7,207.9,85.7z"/>
		<path class="st3" d="M214.4,76.6h-1.5v-1.5h1.5V76.6z M214.4,86.6h-1.5v-8h1.5V86.6z"/>
		<path class="st3" d="M216.3,82.6c0-1.2,0.3-2.1,1-3c0.6-0.7,1.5-1.2,2.7-1.2c1.2,0,2,0.4,2.7,1.2c0.6,0.7,1,1.8,1,3v0.1
			c0,1.3-0.3,2.1-1,3c-0.6,0.9-1.5,1.2-2.7,1.2c-1.1,0-2-0.4-2.7-1.2c-0.6-0.7-1-1.8-1-3V82.6z M217.8,82.7c0,0.9,0.1,1.5,0.5,2.1
			c0.4,0.5,1,0.9,1.6,0.9c0.6,0,1.3-0.3,1.6-0.9c0.4-0.5,0.5-1.3,0.5-2.1v-0.1c0-0.9-0.1-1.5-0.5-2.1c-0.4-0.6-0.9-0.9-1.6-0.9
			c-0.7,0-1.3,0.3-1.6,0.9c-0.3,0.5-0.5,1.3-0.5,2.1V82.7z"/>
		<path class="st3" d="M230.1,84.6c0-0.3-0.1-0.6-0.4-0.7c-0.2-0.2-0.7-0.4-1.4-0.5c-1-0.2-1.7-0.4-2.2-0.9
			c-0.4-0.4-0.7-0.9-0.7-1.5c0-0.6,0.3-1.3,0.9-1.7c0.5-0.4,1.3-0.7,2.1-0.7c1,0,1.7,0.2,2.2,0.7c0.5,0.5,0.9,1.1,0.7,1.8v0.1h-1.4
			c0-0.4-0.1-0.7-0.4-1c-0.3-0.3-0.7-0.4-1.2-0.4c-0.5,0-1,0.1-1.2,0.3c-0.2,0.2-0.4,0.5-0.4,0.9s0.1,0.5,0.3,0.7
			c0.2,0.1,0.7,0.3,1.4,0.4c1,0.2,1.8,0.5,2.2,0.9c0.4,0.4,0.7,0.9,0.7,1.5c0,0.7-0.3,1.3-0.9,1.7c-0.5,0.4-1.3,0.7-2.2,0.7
			c-1,0-1.8-0.2-2.3-0.7c-0.6-0.5-0.9-1.2-0.9-1.8v-0.1h1.4c0,0.5,0.2,1,0.5,1.2c0.4,0.2,0.7,0.4,1.3,0.4s1-0.1,1.3-0.3
			C230,85.1,230.1,84.9,230.1,84.6z"/>
		<path class="st3" d="M237,82.8c0-1.3,0.3-2.3,0.9-3.1c0.5-0.7,1.3-1.2,2.3-1.2c0.4,0,0.9,0.1,1.3,0.2s0.7,0.4,1,0.7v-4.4h1.5v11.6
			h-1.2l-0.1-1c-0.2,0.4-0.6,0.7-1,0.9c-0.4,0.2-0.9,0.3-1.3,0.3c-1,0-1.8-0.4-2.3-1.1c-0.5-0.6-0.9-1.6-0.9-2.8L237,82.8L237,82.8z
			 M238.4,82.9c0,0.9,0.1,1.5,0.4,1.9c0.3,0.4,0.9,0.7,1.5,0.7c0.4,0,0.7-0.1,1.1-0.3s0.5-0.4,0.7-0.9v-3.7
			c-0.1-0.3-0.4-0.6-0.7-0.7c-0.3-0.2-0.7-0.3-1.1-0.3c-0.7,0-1.3,0.3-1.5,0.9c-0.2,0.5-0.4,1.3-0.4,2.2V82.9z"/>
		<path class="st3" d="M249.4,86.9c-1.1,0-2-0.4-2.7-1.1c-0.7-0.7-1-1.7-1-3v-0.3c0-1.2,0.3-2.1,1-2.9c0.6-0.7,1.5-1.2,2.3-1.2
			c1.1,0,1.9,0.3,2.5,1c0.5,0.6,0.9,1.5,0.9,2.7v1h-5.2l0,0c0,0.7,0.2,1.4,0.6,1.9c0.4,0.4,1,0.7,1.5,0.7c0.4,0,1-0.1,1.3-0.2
			c0.4-0.1,0.7-0.3,1-0.6l0.5,1c-0.3,0.3-0.7,0.5-1.2,0.7C250.6,86.7,250.1,86.9,249.4,86.9z M249.1,79.6c-0.4,0-1,0.2-1.3,0.6
			c-0.3,0.4-0.5,1-0.6,1.5l0,0h3.7v-0.1c0-0.5-0.1-1.1-0.4-1.5C250.3,79.9,249.7,79.6,249.1,79.6z"/>
		<path class="st3" d="M262.8,84.6c0-0.3-0.1-0.6-0.4-0.7c-0.3-0.1-0.7-0.4-1.4-0.5c-1-0.2-1.7-0.4-2.2-0.9
			c-0.4-0.4-0.7-0.9-0.7-1.5c0-0.6,0.3-1.3,0.9-1.7c0.5-0.4,1.3-0.7,2.1-0.7c1,0,1.7,0.2,2.2,0.7c0.5,0.4,0.9,1.1,0.7,1.8v0.1h-1.4
			c0-0.4-0.1-0.7-0.4-1c-0.3-0.3-0.7-0.4-1.2-0.4c-0.5,0-1,0.1-1.2,0.3c-0.2,0.2-0.4,0.5-0.4,0.9s0.1,0.5,0.3,0.7
			c0.2,0.1,0.7,0.3,1.4,0.4c1,0.2,1.8,0.5,2.2,0.9c0.4,0.4,0.7,0.9,0.7,1.5c0,0.7-0.3,1.3-0.9,1.7c-0.5,0.4-1.3,0.7-2.2,0.7
			s-1.8-0.2-2.3-0.7c-0.6-0.5-0.9-1.2-0.9-1.8v-0.1h1.4c0,0.5,0.2,1,0.5,1.2c0.4,0.2,0.7,0.4,1.3,0.4s1-0.1,1.3-0.3
			C262.5,85.1,262.8,84.9,262.8,84.6z"/>
		<path class="st3" d="M271,86.6c-0.1-0.2-0.1-0.4-0.1-0.6c0-0.1-0.1-0.4-0.1-0.5c-0.3,0.4-0.6,0.7-1.1,1c-0.4,0.2-1,0.4-1.4,0.4
			c-0.9,0-1.5-0.2-1.9-0.6s-0.7-1-0.7-1.8c0-0.9,0.3-1.4,1-1.8c0.6-0.4,1.5-0.6,2.6-0.6h1.6v-0.7c0-0.4-0.1-0.9-0.4-1.1
			c-0.3-0.3-0.7-0.4-1.3-0.4c-0.4,0-0.9,0.1-1.2,0.4c-0.3,0.2-0.4,0.5-0.4,0.9h-1.3v-0.1c0-0.6,0.2-1.1,0.9-1.6
			c0.6-0.4,1.3-0.7,2.2-0.7c1,0,1.6,0.2,2.1,0.7c0.5,0.4,0.9,1.2,0.9,2v3.8c0,0.3,0,0.5,0.1,0.9c0,0.2,0.1,0.5,0.1,0.7H271L271,86.6
			L271,86.6z M268.6,85.6c0.5,0,1-0.1,1.5-0.4c0.5-0.3,0.7-0.6,0.9-1v-1.3h-1.6c-0.6,0-1.1,0.1-1.4,0.4c-0.4,0.3-0.5,0.6-0.5,1.1
			c0,0.4,0.1,0.6,0.3,0.9C267.9,85.5,268.2,85.6,268.6,85.6z"/>
		<path class="st3" d="M276.1,86.6h-1.5V75.1h1.5V86.6z"/>
		<path class="st3" d="M283.6,85.5c-0.2,0.4-0.5,0.7-1,1c-0.4,0.2-0.9,0.4-1.4,0.4c-0.9,0-1.5-0.3-2.1-0.9c-0.4-0.5-0.7-1.5-0.7-2.7
			v-4.7h1.5v4.8c0,0.9,0.1,1.5,0.4,1.8c0.2,0.3,0.6,0.4,1.2,0.4s1-0.1,1.3-0.3c0.3-0.2,0.6-0.5,0.7-1v-5.8h1.5v8h-1.3v-1.2H283.6z"
			/>
		<path class="st3" d="M286.8,82.8c0-1.3,0.3-2.3,0.9-3.1c0.5-0.7,1.3-1.2,2.3-1.2c0.4,0,0.9,0.1,1.3,0.2c0.4,0.1,0.7,0.4,1,0.7
			v-4.4h1.5v11.6h-1.2l-0.1-1c-0.2,0.4-0.6,0.7-1,0.9c-0.4,0.2-0.9,0.3-1.3,0.3c-1,0-1.8-0.4-2.3-1.1c-0.5-0.7-0.9-1.6-0.9-2.8
			L286.8,82.8L286.8,82.8z M288.3,82.9c0,0.9,0.1,1.5,0.4,1.9c0.3,0.4,0.9,0.7,1.5,0.7c0.4,0,0.7-0.1,1.1-0.3
			c0.3-0.2,0.5-0.4,0.7-0.9v-3.7c-0.1-0.3-0.4-0.6-0.7-0.7c-0.3-0.2-0.7-0.3-1.1-0.3c-0.7,0-1.3,0.3-1.5,0.9
			c-0.2,0.5-0.4,1.3-0.4,2.2V82.9z"/>
		<path class="st3" d="M299.4,82.8c0-1.3,0.3-2.3,0.9-3.1c0.5-0.7,1.3-1.2,2.3-1.2c0.4,0,0.9,0.1,1.3,0.2c0.4,0.1,0.7,0.4,1,0.7
			v-4.4h1.5v11.6H305l-0.1-1c-0.2,0.4-0.6,0.7-1,0.9c-0.4,0.2-0.9,0.3-1.3,0.3c-1,0-1.8-0.4-2.3-1.1c-0.5-0.7-0.9-1.6-0.9-2.8
			L299.4,82.8L299.4,82.8z M300.9,82.9c0,0.9,0.1,1.5,0.4,1.9c0.3,0.4,0.9,0.7,1.5,0.7c0.4,0,0.7-0.1,1.1-0.3
			c0.3-0.2,0.5-0.4,0.7-0.9v-3.7c-0.1-0.3-0.4-0.6-0.7-0.7c-0.3-0.2-0.7-0.3-1.1-0.3c-0.7,0-1.3,0.3-1.5,0.9
			c-0.2,0.5-0.4,1.3-0.4,2.2V82.9z"/>
		<path class="st3" d="M311.9,86.9c-1.1,0-2-0.4-2.7-1.1c-0.7-0.7-1-1.7-1-3v-0.3c0-1.2,0.3-2.1,1-2.9c0.7-0.7,1.5-1.2,2.3-1.2
			c1.1,0,1.9,0.3,2.5,1c0.5,0.6,0.9,1.5,0.9,2.7v1h-5.2l0,0c0,0.7,0.2,1.4,0.6,1.9c0.4,0.4,1,0.7,1.5,0.7c0.4,0,1-0.1,1.3-0.2
			c0.4-0.1,0.7-0.3,1-0.6l0.5,1c-0.3,0.3-0.7,0.5-1.2,0.7C313,86.7,312.5,86.9,311.9,86.9z M311.6,79.6c-0.4,0-1,0.2-1.3,0.6
			c-0.3,0.4-0.5,1-0.6,1.5l0,0h3.7v-0.1c0-0.5-0.1-1.1-0.4-1.5C312.7,79.9,312.2,79.6,311.6,79.6z"/>
		<path class="st3" d="M318.2,86.6h-1.5V75.1h1.5V86.6z"/>
		<path class="st3" d="M327.7,86.9c-1.1,0-2-0.4-2.7-1.1c-0.7-0.7-1-1.7-1-3v-0.3c0-1.2,0.3-2.1,1-2.9c0.7-0.7,1.5-1.2,2.3-1.2
			c1.1,0,1.9,0.3,2.5,1c0.5,0.6,0.9,1.5,0.9,2.7v1h-5.2l0,0c0,0.7,0.2,1.4,0.6,1.9c0.4,0.4,1,0.7,1.5,0.7c0.4,0,1-0.1,1.3-0.2
			c0.4-0.1,0.7-0.3,1-0.6l0.5,1c-0.3,0.3-0.7,0.5-1.2,0.7C328.9,86.7,328.4,86.9,327.7,86.9z M327.4,79.6c-0.4,0-1,0.2-1.3,0.6
			c-0.3,0.4-0.5,1-0.6,1.5l0,0h3.7v-0.1c0-0.5-0.1-1.1-0.4-1.5C328.5,79.9,328.1,79.6,327.4,79.6z"/>
		<path class="st3" d="M337.2,84.6c0-0.3-0.1-0.6-0.4-0.7c-0.2-0.2-0.7-0.4-1.4-0.5c-1-0.2-1.7-0.4-2.2-0.9
			c-0.4-0.4-0.7-0.9-0.7-1.5c0-0.6,0.3-1.3,0.9-1.7c0.5-0.4,1.3-0.7,2.1-0.7c1,0,1.7,0.2,2.2,0.7c0.5,0.5,0.9,1.1,0.7,1.8v0.1H337
			c0-0.4-0.1-0.7-0.4-1c-0.3-0.3-0.7-0.4-1.2-0.4c-0.5,0-1,0.1-1.2,0.3c-0.2,0.2-0.4,0.5-0.4,0.9s0.1,0.5,0.3,0.7
			c0.2,0.1,0.7,0.3,1.4,0.4c1,0.2,1.8,0.5,2.2,0.9c0.4,0.4,0.7,0.9,0.7,1.5c0,0.7-0.3,1.3-0.9,1.7c-0.5,0.4-1.3,0.7-2.2,0.7
			c-1,0-1.8-0.2-2.3-0.7c-0.6-0.5-0.9-1.2-0.9-1.8v-0.1h1.4c0,0.5,0.2,1,0.5,1.2c0.4,0.2,0.7,0.4,1.3,0.4c0.5,0,1-0.1,1.3-0.3
			C337,85.1,337.2,84.9,337.2,84.6z"/>
		<path class="st3" d="M342.5,76.7v1.9h1.5v1.1h-1.5v4.9c0,0.4,0.1,0.6,0.2,0.7s0.4,0.2,0.6,0.2c0.1,0,0.1,0,0.3,0
			c0.1,0,0.1-0.1,0.3-0.1l0.2,1c-0.1,0.1-0.2,0.1-0.4,0.2c-0.2,0.1-0.4,0.1-0.6,0.1c-0.6,0-1.1-0.1-1.4-0.5c-0.4-0.4-0.5-1-0.5-1.7
			v-4.9h-1.3v-1.1h1.3v-1.9L342.5,76.7L342.5,76.7z"/>
		<path class="st3" d="M350.8,86.6c-0.1-0.2-0.1-0.4-0.1-0.6c0-0.1-0.1-0.4-0.1-0.5c-0.3,0.4-0.6,0.7-1.1,1c-0.4,0.2-1,0.4-1.4,0.4
			c-0.9,0-1.5-0.2-1.9-0.6s-0.7-1-0.7-1.8c0-0.9,0.3-1.4,1-1.8c0.6-0.4,1.5-0.6,2.6-0.6h1.6v-0.7c0-0.4-0.1-0.9-0.4-1.1
			c-0.3-0.3-0.7-0.4-1.3-0.4c-0.4,0-0.9,0.1-1.2,0.4c-0.3,0.2-0.4,0.5-0.4,0.9h-1.4v-0.1c0-0.6,0.2-1.1,0.9-1.6
			c0.6-0.4,1.3-0.7,2.2-0.7s1.6,0.2,2.1,0.7c0.5,0.4,0.9,1.2,0.9,2v3.8c0,0.3,0,0.5,0.1,0.9c0,0.2,0.1,0.5,0.1,0.7h-1.5v-0.1H350.8z
			 M348.4,85.6c0.5,0,1-0.1,1.5-0.4s0.7-0.6,0.9-1v-1.3h-1.6c-0.6,0-1.1,0.1-1.4,0.4c-0.4,0.3-0.5,0.6-0.5,1.1
			c0,0.4,0.1,0.6,0.3,0.9C347.6,85.5,347.9,85.6,348.4,85.6z"/>
		<path class="st3" d="M354,82.8c0-1.3,0.3-2.3,0.9-3.1c0.5-0.7,1.3-1.2,2.3-1.2c0.4,0,0.9,0.1,1.3,0.2c0.4,0.1,0.7,0.4,1,0.7v-4.4
			h1.5v11.6h-1.2l-0.1-1c-0.2,0.4-0.6,0.7-1,0.9c-0.4,0.2-0.9,0.3-1.3,0.3c-1,0-1.8-0.4-2.3-1.1c-0.5-0.7-0.9-1.6-0.9-2.8L354,82.8
			L354,82.8z M355.4,82.9c0,0.9,0.1,1.5,0.4,1.9c0.3,0.4,0.9,0.7,1.5,0.7c0.4,0,0.7-0.1,1.1-0.3s0.5-0.4,0.7-0.9v-3.7
			c-0.1-0.3-0.4-0.6-0.7-0.7c-0.3-0.2-0.7-0.3-1.1-0.3c-0.7,0-1.3,0.3-1.5,0.9c-0.2,0.5-0.4,1.3-0.4,2.2V82.9z"/>
		<path class="st3" d="M362.7,82.6c0-1.2,0.3-2.1,1-3c0.6-0.7,1.5-1.2,2.7-1.2s2,0.4,2.7,1.2s1,1.8,1,3v0.1c0,1.3-0.3,2.1-1,3
			c-0.6,0.7-1.5,1.2-2.7,1.2s-2-0.4-2.7-1.2c-0.6-0.7-1-1.8-1-3V82.6z M364.2,82.7c0,0.9,0.1,1.5,0.5,2.1c0.4,0.5,1,0.9,1.6,0.9
			c0.7,0,1.3-0.3,1.6-0.9c0.4-0.5,0.5-1.3,0.5-2.1v-0.1c0-0.9-0.1-1.5-0.5-2.1c-0.4-0.5-1-0.9-1.6-0.9c-0.7,0-1.3,0.3-1.6,0.9
			c-0.4,0.5-0.5,1.3-0.5,2.1V82.7z"/>
	</g>
</g>
</svg>
